Coordinates
version=1
nRows=38
nColumns=12
inDegrees=yes

Units are S.I. units (second, meters, Newtons, ...)
Angles are in degrees

endheader
time	SC_y	SC_z	SC_x	AC_y	AC_z	AC_x	GH_y	GH_z	GH_yy	EL_x	PS_y
       0.0               -35.0          34.58          65.56          58.69          3.363          15.83         -66.43          -14.0         -67.41          125.3          40.89
    0.0125               -35.0          34.58          65.55          58.69          3.363          15.82         -66.43         -13.99         -67.41          125.3           40.9
   0.02499              -35.01          34.58          65.55          58.69          3.363          15.82         -66.43         -13.99         -67.41          125.3          40.91
   0.03749              -35.01          34.58          65.54          58.68          3.363          15.81         -66.43         -13.98         -67.41          125.3          40.93
   0.04999              -35.01          34.58          65.53          58.68          3.362          15.81         -66.44         -13.97         -67.41          125.3          40.94
   0.06248              -35.02          34.59          65.52          58.68          3.362          15.81         -66.44         -13.96          -67.4          125.3          40.95
   0.07498              -35.02          34.59          65.51          58.68          3.362           15.8         -66.44         -13.96          -67.4          125.3          40.97
   0.08748              -35.03          34.59          65.51          58.68          3.362          15.79         -66.44         -13.95          -67.4          125.3          40.98
   0.09997              -35.03          34.59          65.49          58.67          3.362          15.79         -66.45         -13.94          -67.4          125.3           41.0
    0.1125              -35.03          34.59          65.48          58.67          3.362          15.78         -66.45         -13.93          -67.4          125.3          41.02
     0.125              -35.04          34.59          65.47          58.67          3.362          15.78         -66.45         -13.91         -67.39          125.3          41.04
    0.1375              -35.05          34.59          65.46          58.66          3.362          15.77         -66.46          -13.9         -67.39          125.2          41.06
      0.15              -35.05          34.59          65.45          58.66          3.362          15.76         -66.46         -13.89         -67.39          125.2          41.08
    0.1625              -35.06          34.59          65.43          58.66          3.362          15.75         -66.46         -13.87         -67.38          125.2          41.11
     0.175              -35.07          34.59          65.42          58.65          3.362          15.74         -66.47         -13.86         -67.38          125.2          41.14
    0.1875              -35.08          34.59           65.4          58.65          3.361          15.73         -66.47         -13.84         -67.38          125.2          41.16
    0.1999              -35.08          34.59          65.38          58.64          3.361          15.72         -66.48         -13.82         -67.37          125.2           41.2
    0.2124              -35.09          34.59          65.36          58.64          3.361          15.71         -66.48          -13.8         -67.37          125.2          41.23
    0.2249               -35.1           34.6          65.34          58.63          3.361           15.7         -66.49         -13.78         -67.36          125.2          41.27
    0.2374              -35.12           34.6          65.31          58.63          3.361          15.68         -66.49         -13.76         -67.36          125.2          41.31
    0.2499              -35.13           34.6          65.29          58.62          3.361          15.67          -66.5         -13.73         -67.35          125.2          41.35
    0.2624              -35.14           34.6          65.26          58.61           3.36          15.65         -66.51          -13.7         -67.35          125.2           41.4
    0.2749              -35.16           34.6          65.22          58.61           3.36          15.63         -66.52         -13.67         -67.34          125.2          41.46
    0.2874              -35.17           34.6          65.19           58.6           3.36          15.61         -66.53         -13.64         -67.33          125.2          41.52
    0.2999              -35.19          34.61          65.15          58.59           3.36          15.59         -66.54          -13.6         -67.32          125.2          41.59
    0.3124              -35.21          34.61           65.1          58.58          3.359          15.56         -66.55         -13.55         -67.31          125.2          41.66
    0.3249              -35.24          34.61          65.05          58.57          3.359          15.53         -66.56          -13.5          -67.3          125.2          41.75
    0.3374              -35.26          34.61           65.0          58.55          3.359           15.5         -66.58         -13.45         -67.29          125.2          41.84
    0.3499              -35.29          34.62          64.93          58.54          3.358          15.46         -66.59         -13.39         -67.28          125.2          41.95
    0.3624              -35.33          34.62          64.86          58.52          3.358          15.42         -66.61         -13.31         -67.26          125.1          42.07
    0.3749              -35.37          34.63          64.78           58.5          3.357          15.37         -66.64         -13.23         -67.24          125.1          42.21
    0.3874              -35.41          34.63          64.68          58.48          3.356          15.32         -66.66         -13.14         -67.22          125.1          42.37
    0.3999              -35.46          34.64          64.58          58.45          3.355          15.25         -66.69         -13.03          -67.2          125.1          42.55
    0.4124              -35.52          34.64          64.45          58.42          3.355          15.18         -66.72         -12.91         -67.17          125.1          42.77
    0.4249              -35.59          34.65           64.3          58.38          3.353          15.09         -66.76         -12.76         -67.14          125.0          43.02
    0.4374              -35.67          34.66          64.12          58.34          3.352          14.99         -66.81         -12.59          -67.1          125.0          43.31
    0.4499              -35.77          34.67          63.92          58.29          3.351          14.87         -66.86         -12.39         -67.06          125.0          43.66
    0.4624              -35.89          34.69          63.67          58.23          3.349          14.73         -66.93         -12.14         -67.01          124.9          44.08
